<?xml version="1.0" standalone="no"?><!DOCTYPE svg PUBLIC "-//W3C//DTD SVG 1.1//EN" "http://www.w3.org/Graphics/SVG/1.1/DTD/svg11.dtd"><svg t="1741778260600" class="icon" viewBox="0 0 1024 1024" version="1.1" xmlns="http://www.w3.org/2000/svg" p-id="1411" xmlns:xlink="http://www.w3.org/1999/xlink" width="200" height="200"><path d="M579.84 512l350.08-350.08c18.56-18.56 18.56-49.28 0-67.84s-49.28-18.56-67.84 0L512 444.16 161.92 94.08c-18.56-18.56-49.28-18.56-67.84 0s-18.56 49.28 0 67.84L444.16 512l-350.08 350.08c-18.56 18.56-18.56 49.28 0 67.84 9.6 9.6 21.76 14.08 33.92 14.08s24.32-4.48 33.92-14.08L512 579.84l350.08 350.08c9.6 9.6 21.76 14.08 33.92 14.08s24.32-4.48 33.92-14.08c18.56-18.56 18.56-49.28 0-67.84L579.84 512z" p-id="1412"></path></svg>